<svg width="512" height="512" viewBox="0 0 80 80" fill="none" xmlns="http://www.w3.org/2000/svg">
  <defs>
    <linearGradient id="bg" x1="0" y1="0" x2="80" y2="80" gradientUnits="userSpaceOnUse">
      <stop offset="0%" stop-color="#060d18"/><stop offset="100%" stop-color="#0d1f35"/>
    </linearGradient>
    <linearGradient id="tableL" x1="28" y1="28" x2="40" y2="52" gradientUnits="userSpaceOnUse">
      <stop offset="0%" stop-color="#ffffff"/><stop offset="100%" stop-color="#dbeafe"/>
    </linearGradient>
    <linearGradient id="tableR" x1="52" y1="28" x2="40" y2="52" gradientUnits="userSpaceOnUse">
      <stop offset="0%" stop-color="#e0f7f6"/><stop offset="100%" stop-color="#00B5AD" stop-opacity="0.7"/>
    </linearGradient>
    <linearGradient id="prism" x1="0" y1="0" x2="80" y2="0" gradientUnits="userSpaceOnUse">
      <stop offset="0%"   stop-color="#818cf8" stop-opacity="0.5"/>
      <stop offset="33%"  stop-color="#00B5AD" stop-opacity="0.4"/>
      <stop offset="66%"  stop-color="#34d399" stop-opacity="0.3"/>
      <stop offset="100%" stop-color="#fbbf24" stop-opacity="0.2"/>
    </linearGradient>
    <linearGradient id="star" x1="0" y1="0" x2="80" y2="80" gradientUnits="userSpaceOnUse">
      <stop offset="0%" stop-color="#1A365D"/><stop offset="100%" stop-color="#234e7a"/>
    </linearGradient>
    <filter id="nodeglow">
      <feGaussianBlur stdDeviation="1.5" result="b"/>
      <feMerge><feMergeNode in="b"/><feMergeNode in="SourceGraphic"/></feMerge>
    </filter>
    <filter id="glow">
      <feGaussianBlur stdDeviation="2.5" result="b"/>
      <feMerge><feMergeNode in="b"/><feMergeNode in="SourceGraphic"/></feMerge>
    </filter>
  </defs>

  <rect width="80" height="80" rx="18" fill="url(#bg)"/>
  <rect x="1.5" y="1.5" width="77" height="77" rx="16.5" stroke="#00B5AD" stroke-opacity="0.2" stroke-width="1" fill="none"/>

  <!-- Star facets -->
  <polygon points="40,4 23,23 40,24 57,23" fill="url(#star)" opacity="0.9"/>
  <polygon points="65,15 57,23 51,29 66,40" fill="url(#prism)"/>
  <polygon points="76,40 66,40 56,40 57,57" fill="url(#star)" opacity="0.8"/>
  <polygon points="65,65 57,57 51,51 40,66" fill="url(#prism)" opacity="0.8"/>
  <polygon points="40,76 40,66 40,56 23,57" fill="url(#star)" opacity="0.9"/>
  <polygon points="15,65 23,57 29,51 14,40" fill="url(#prism)" opacity="0.6"/>
  <polygon points="4,40 14,40 24,40 23,23" fill="url(#star)" opacity="0.85"/>
  <polygon points="15,15 23,23 29,29 14,40" fill="url(#prism)" opacity="0.5"/>

  <!-- Upper girdle facets -->
  <polygon points="23,23 40,24 29,29" fill="white" opacity="0.12"/>
  <polygon points="57,23 40,24 51,29" fill="white" opacity="0.08"/>
  <polygon points="66,40 56,40 51,29" fill="white" opacity="0.1"/>
  <polygon points="66,40 56,40 57,57" fill="white" opacity="0.06"/>
  <polygon points="57,57 40,56 51,51" fill="white" opacity="0.1"/>
  <polygon points="23,57 40,56 29,51" fill="white" opacity="0.07"/>
  <polygon points="14,40 24,40 29,51" fill="white" opacity="0.1"/>
  <polygon points="14,40 24,40 23,23" fill="white" opacity="0.08"/>

  <!-- Table face = book pages -->
  <polygon points="40,24 29,29 24,40 29,51 40,56 40,40" fill="url(#tableL)"/>
  <polygon points="40,24 51,29 56,40 51,51 40,56 40,40" fill="url(#tableR)"/>
  <line x1="40" y1="24" x2="40" y2="56" stroke="white" stroke-width="1.2" stroke-opacity="0.8"/>
  <polyline points="29,29 40,24 51,29" fill="none" stroke="white" stroke-width="0.9" stroke-opacity="0.6"/>
  <line x1="28" y1="35" x2="39" y2="33" stroke="#1A365D" stroke-width="0.7" stroke-opacity="0.4"/>
  <line x1="27" y1="39" x2="39" y2="37" stroke="#1A365D" stroke-width="0.7" stroke-opacity="0.3"/>
  <line x1="27" y1="43" x2="39" y2="43" stroke="#1A365D" stroke-width="0.7" stroke-opacity="0.25"/>
  <line x1="41" y1="33" x2="52" y2="35" stroke="#00897B" stroke-width="0.7" stroke-opacity="0.3"/>
  <line x1="41" y1="37" x2="53" y2="39" stroke="#00897B" stroke-width="0.7" stroke-opacity="0.22"/>

  <!-- Edge lines -->
  <polygon points="40,4 65,15 76,40 65,65 40,76 15,65 4,40 15,15" fill="none" stroke="#00B5AD" stroke-width="0.9" stroke-opacity="0.4"/>
  <polygon points="23,23 57,23 66,40 57,57 40,66 23,57 14,40 23,23" fill="none" stroke="#00B5AD" stroke-width="0.7" stroke-opacity="0.3"/>
  <polygon points="40,24 51,29 56,40 51,51 40,56 29,51 24,40 29,29" fill="none" stroke="white" stroke-width="0.9" stroke-opacity="0.5"/>
  <line x1="40" y1="4"  x2="40" y2="24" stroke="#00B5AD" stroke-width="0.7" stroke-opacity="0.4"/>
  <line x1="65" y1="15" x2="51" y2="29" stroke="#00B5AD" stroke-width="0.7" stroke-opacity="0.35"/>
  <line x1="76" y1="40" x2="56" y2="40" stroke="#00B5AD" stroke-width="0.7" stroke-opacity="0.35"/>
  <line x1="65" y1="65" x2="51" y2="51" stroke="#00B5AD" stroke-width="0.7" stroke-opacity="0.35"/>
  <line x1="40" y1="76" x2="40" y2="56" stroke="#00B5AD" stroke-width="0.7" stroke-opacity="0.4"/>
  <line x1="15" y1="65" x2="29" y2="51" stroke="#00B5AD" stroke-width="0.7" stroke-opacity="0.35"/>
  <line x1="4"  y1="40" x2="24" y2="40" stroke="#00B5AD" stroke-width="0.7" stroke-opacity="0.35"/>
  <line x1="15" y1="15" x2="29" y2="29" stroke="#00B5AD" stroke-width="0.7" stroke-opacity="0.35"/>

  <!-- Node dots -->
  <g filter="url(#nodeglow)">
    <circle cx="40" cy="4"  r="1.8" fill="#00B5AD" opacity="0.9"/>
    <circle cx="65" cy="15" r="1.5" fill="#00B5AD" opacity="0.7"/>
    <circle cx="76" cy="40" r="1.8" fill="#00B5AD" opacity="0.9"/>
    <circle cx="65" cy="65" r="1.5" fill="#00B5AD" opacity="0.7"/>
    <circle cx="40" cy="76" r="1.8" fill="#00B5AD" opacity="0.9"/>
    <circle cx="15" cy="65" r="1.5" fill="#00B5AD" opacity="0.7"/>
    <circle cx="4"  cy="40" r="1.8" fill="#00B5AD" opacity="0.9"/>
    <circle cx="15" cy="15" r="1.5" fill="#00B5AD" opacity="0.7"/>
    <circle cx="40" cy="14" r="1.2" fill="white" opacity="0.7"/>
    <circle cx="57" cy="23" r="1.2" fill="white" opacity="0.6"/>
    <circle cx="66" cy="40" r="1.2" fill="white" opacity="0.7"/>
    <circle cx="57" cy="57" r="1.2" fill="white" opacity="0.6"/>
    <circle cx="40" cy="66" r="1.2" fill="white" opacity="0.7"/>
    <circle cx="23" cy="57" r="1.2" fill="white" opacity="0.6"/>
    <circle cx="14" cy="40" r="1.2" fill="white" opacity="0.7"/>
    <circle cx="23" cy="23" r="1.2" fill="white" opacity="0.6"/>
    <circle cx="40" cy="24" r="1"   fill="white" opacity="0.85"/>
    <circle cx="51" cy="29" r="0.9" fill="white" opacity="0.7"/>
    <circle cx="56" cy="40" r="1"   fill="white" opacity="0.85"/>
    <circle cx="51" cy="51" r="0.9" fill="white" opacity="0.7"/>
    <circle cx="40" cy="56" r="1"   fill="white" opacity="0.85"/>
    <circle cx="29" cy="51" r="0.9" fill="white" opacity="0.7"/>
    <circle cx="24" cy="40" r="1"   fill="white" opacity="0.85"/>
    <circle cx="29" cy="29" r="0.9" fill="white" opacity="0.7"/>
  </g>

  <!-- Sparkle top -->
  <g filter="url(#glow)">
    <path d="M40,4 L40.8,7 L44,7.5 L40.8,8 L40,11 L39.2,8 L36,7.5 L39.2,7 Z" fill="white" opacity="0.95"/>
  </g>
</svg>
